<svg width="100" height="100" xmlns="http://www.w3.org/2000/svg">
 <metadata>image/svg+xml</metadata>
 <defs>
  <linearGradient x1="5.07129" y1="0.18653" x2="-4.92871" y2="1.08653" id="linearGradient3027">
   <stop offset="0" stop-color="#DADADA"/>
   <stop offset="0.349" stop-color="#F1F1F1"/>
   <stop offset="1" stop-color="#F0F0F0"/>
  </linearGradient>
  <linearGradient x1="1.12257" y1="1.5225" x2="-1.07483" y2="-0.50229" id="linearGradient3037">
   <stop offset="0" stop-color="#DADADA"/>
   <stop offset="0.349" stop-color="#F1F1F1"/>
   <stop offset="1" stop-color="#F0F0F0"/>
  </linearGradient>
 </defs>
 <g>
  <title>Layer 1</title>
  <path id="svg_1" fill="url(#linearGradient3027)" stroke-width="0.25" stroke="#000" stroke-opacity="0.3648" d="m4.5,0.145l0,99.6l90.8,0l0,-74.7l-22.7,-24.9l-68.1,0z"/>
  <path id="svg_2" d="m80.7,18.6l0,64.4l-61.9,0l0,-64.5l61.9,0m-3,3l-55.9,0l0,58.4l55.9,0l0,-58.5l0,0.1z"/>
  <path id="svg_3" d="m47.7,36.7c-0.781,0 -1.31,0.438 -2,1.02l-6,4.98l-4,0c-1.1,0 -2,0.9 -2,2l0,12c0,1.1 0.9,2 2,2l4,0l6,4.98c0.688,0.578 1.22,1.02 2,1.02c1.22,0 2,-0.984 2,-2l0,-24c0,-1.02 -0.781,-2 -2,-2zm-2,21.8l-4.56,-3.78l-3.44,0l0,-8l3.44,0l4.56,-3.78l0,15.6l0,-0.04zm8,-17.8c-1.25,0 -2,1.05 -2,2c0,1.42 2,2.78 2,8s-2,6.58 -2,8c0,0.953 0.75,2 2,2c1.02,0 1.62,-0.547 2.28,-2c1.23,-2.72 1.72,-5.33 1.72,-8s-0.49,-5.28 -1.72,-8c-0.656,-1.45 -1.26,-2 -2.28,-2zm9.15,-2c-0.838,-1.77 -1.63,-2 -2.33,-2c-1.19,0 -2,1 -2,2c0,1.67 3.19,4.53 3.19,12s-3.19,10.3 -3.19,12c0,1 0.813,2 2,2c0.703,0 1.49,-0.229 2.33,-2c0.918,-1.94 2.86,-5.84 2.86,-12s-1.94,-10.1 -2.85,-12l-0.01,0z"/>
  <path id="svg_4" d="m95,24.8c-3.23,-0.887 -7.03,-1.34 -11.3,-1.34c-3.45,0 -7.09,0.304 -10.5,0.876c1.22,-7.94 1.13,-17 -0.226,-23.7l22,24.2l0.026,-0.036z" fill="url(#linearGradient3037)"/>
  <path id="svg_5" d="m72.7,0.215l22.60001,24.8c-3.56001,-1.03 -7.64,-1.45 -11.7,-1.45c-3.73,0 -7.43999,0.354 -10.7,0.905c1.3,-7.4 1.4,-16.8 -0.2,-24.3m22.60001,24.8c0.047,0.014 0.096,0.027 0.143,0.042l-0.09,0.015l-0.05299,-0.057m-22.10001,-23.8c1.27,6.67 1.34,15.4 0.168,23.2c3.4,-0.558 6.98,-0.852 10.4,-0.852c4.1,0 7.76,0.413 10.9,1.23l-21.5,-23.5l0.032,-0.078z" fill="#8e8e8e"/>
 </g>
</svg>