<svg width="100" height="100" xmlns="http://www.w3.org/2000/svg">
 <metadata>image/svg+xml</metadata>
 <defs>
  <linearGradient x1="1.12257" y1="1.51588" x2="-1.07483" y2="-0.46759" id="linearGradient3795">
   <stop offset="0" stop-color="#DADADA"/>
   <stop offset="0.349" stop-color="#F1F1F1"/>
   <stop offset="1" stop-color="#F0F0F0"/>
  </linearGradient>
  <linearGradient x1="0.30355" y1="0.31524" x2="0.30355" y2="1.31574" id="linearGradient3800">
   <stop offset="0" stop-color="#DADADA"/>
   <stop offset="0.349" stop-color="#F1F1F1"/>
   <stop offset="1" stop-color="#F0F0F0"/>
  </linearGradient>
 </defs>
 <g>
  <title>Layer 1</title>
  <path id="svg_1" fill="url(#linearGradient3800)" stroke-width="1.98454" stroke-miterlimit="4" stroke="#000" stroke-opacity="0.3648" d="m4.49,0.975l0,98l90.8,0l0,-73.5l-22.7,-24.5l-68.1,0z"/>
  <path id="svg_2" stroke-width="2" stroke-miterlimit="4" d="m80.7,18.6l0,64.4l-61.9,0l0,-64.5l61.9,0m-3,3l-55.9,0l0,58.4l55.9,0l0,-58.5l0,0.1z"/>
  <path id="svg_3" fill="none" stroke-width="2" clip-rule="evenodd" stroke-miterlimit="4" stroke="#f80000" d="m64.1,37.7c1.2,-0.415 2.54,-0.646 4.11,-0.646l0,-9.37c-6.74,0 -12.1,2.54 -16.3,7.66c-1.43,1.8 -2.86,4.06 -4.06,6.83l-3.05,7.43c-1.06,3 -1.99,5.22 -2.72,6.7c-0.971,2.12 -1.89,3.79 -2.82,4.99c-1.16,1.43 -2.36,2.4 -3.69,3.05c-1.48,0.693 -3.19,1.06 -5.17,1.06l0,9.46c6.74,0 12.1,-2.58 16.3,-7.66c1.16,-1.52 2.26,-3.28 3.32,-5.36l2.59,-5.91l10.9,0l0,-9.42l-7.16,0c0.693,-1.57 1.39,-2.91 2.12,-4.06c0.785,-1.2 1.62,-2.22 2.49,-2.91c0.969,-0.828 1.98,-1.43 3.18,-1.84"/>
  <path id="svg_4" fill="url(#linearGradient3795)" stroke-width="2" stroke-miterlimit="4" d="m95,24.8c-3.23,-0.887 -7.03,-1.34 -11.3,-1.34c-3.45,0 -7.09,0.304 -10.5,0.876c1.22,-7.94 1.13,-17 -0.226,-23.7l22,24.2l0.026,-0.036z"/>
  <path id="svg_5" fill="#8e8e8e" stroke-width="2" stroke-miterlimit="4" d="m72.7,0.215l22.60001,24.8c-3.56001,-1.03 -7.64,-1.45 -11.7,-1.45c-3.73,0 -7.43999,0.354 -10.7,0.905c1.3,-7.4 1.4,-16.8 -0.2,-24.3m22.60001,24.8c0.047,0.014 0.096,0.027 0.143,0.042l-0.09,0.015l-0.05299,-0.057m-22.10001,-23.8c1.27,6.67 1.34,15.4 0.168,23.2c3.4,-0.558 6.98,-0.852 10.4,-0.852c4.1,0 7.76,0.413 10.9,1.23l-21.5,-23.5l0.032,-0.078z"/>
 </g>
</svg>