<svg width="100" height="100" xmlns="http://www.w3.org/2000/svg">
 <metadata>image/svg+xml</metadata>
 <defs>
  <linearGradient x1="0.50047" y1="0.99984" x2="0.50047" y2="0.00049" id="linearGradient3035">
   <stop offset="0" stop-color="#0684BF"/>
   <stop offset="0.198" stop-color="#478BCA"/>
   <stop offset="1" stop-color="#61CCF0"/>
  </linearGradient>
  <linearGradient x1="0.80492" y1="-0.48058" x2="0.80492" y2="0.51754" id="linearGradient3039">
   <stop offset="0" stop-color="#31C1D7"/>
   <stop offset="1" stop-color="#61CCF0"/>
  </linearGradient>
 </defs>
 <filter color-interpolation-filters="sRGB" height="1.93292" x="-0.02491" y="-0.46646" width="1.04982" id="filter3796">
  <feGaussianBlur stdDeviation="2.13793"/>
 </filter>
 <g>
  <title>Layer 1</title>
  <polygon id="svg_1" fill="#2d2d2d" points="97.7,87.1,2.37,87.1,6.07,82,94,82" filter="url(#filter3796)" opacity="0.7085"/>
  <path id="svg_2" fill="none" stroke-width="0.6936" stroke="#3287c8" d="m13.7,10.8c-3.57,0 -6.11,1.2 -6.36,5.46c-0.628,11 -3.15,36.3 -3.15,47.3l0,18.6c0.047,1.6 1.84,3.14999 3.34,3.14999l85.4,0c1.63,0 3.32,-1.54 3.32,-3.74l0,-18c0,-9.88 -2.42,-31.1 -3.22,-39.9c-0.344,-3.77 -3.5,-6.34 -7.54,-6.34l-37,0l-1.69,-2.86c-1.65,-2.79 -3.47,-3.61 -5.68,-3.61l-27.3,0l-0.11,-0.2l-0.01,0.14z"/>
  <path id="svg_3" d="m13.7,10.8c-3.57,0 -6.11,1.2 -6.36,5.46c-0.628,11 -3.15,36.3 -3.15,47.3l0,18.6c0.047,1.6 1.84,3.14999 3.34,3.14999l85.4,0c1.63,0 3.32,-1.54 3.32,-3.74l0,-18c0,-9.88 -2.42,-31.1 -3.22,-39.9c-0.344,-3.77 -3.5,-6.34 -7.54,-6.34l-37,0l-1.69,-2.86c-1.65,-2.79 -3.47,-3.61 -5.68,-3.61l-27.3,0l-0.11,-0.2l-0.01,0.14z" fill="url(#linearGradient3039)"/>
  <path id="svg_4" fill="none" stroke-width="0.6936" stroke-linecap="round" stroke="#3287c8" d="m59.7,23.8l29.9,0c4.96,0 8.36,3.39 7.97,8.61c-0.68,9.03 -0.377,22.8 -0.805,30.7c-0.356,6.59 -0.578,11.5 -0.582,18.5c-0.002,1.64 -1.6,3.7 -3.24,3.7l-85.5,0c-1.53,0 -3.22,-1.71 -3.24,-3.24c-0.11,-7.2 -0.2,-12.7 -0.4,-19c-0.26,-8.4 -0.69,-21.6 -1.49,-30.3c0.03,-7.2 4.79,-9 8.53,-9l48.9,0l-0.044,0.03l0.001,0z" stroke-linejoin="round"/>
  <path id="svg_5" d="m59.7,23.8l29.9,0c4.96,0 8.36,3.39 7.97,8.61c-0.68,9.03 -0.377,22.8 -0.805,30.7c-0.356,6.59 -0.578,11.5 -0.582,18.5c-0.002,1.64 -1.6,3.7 -3.24,3.7l-85.5,0c-1.53,0 -3.22,-1.71 -3.24,-3.24c-0.11,-7.2 -0.2,-12.7 -0.4,-19c-0.26,-8.4 -0.69,-21.6 -1.49,-30.3c0.03,-7.2 4.79,-9 8.53,-9l48.9,0l-0.044,0.03l0.001,0z" fill="url(#linearGradient3035)"/>
 </g>
</svg>