<svg width="16" height="16" xmlns="http://www.w3.org/2000/svg">
 <metadata>image/svg+xml</metadata>
 <defs>
  <linearGradient x1="0.00204" y1="0.49966" x2="1.00611" y2="0.49966" id="linearGradient3011">
   <stop offset="0" stop-color="#FFF"/>
   <stop offset="1" stop-color="#DBDBDB"/>
  </linearGradient>
 </defs>
 <g>
  <title>Layer 1</title>
  <path id="svg_1" d="m13.5,15.4l-11.1,0c-1,0 -1.82,-0.813 -1.82,-1.81l0,-11.2c0,-1 0.815,-1.82 1.82,-1.82l11.1,0c1,0 1.81,0.815 1.81,1.82l0,11.1c0,1 -0.813,1.81 -1.81,1.81l0,0.1z" fill="url(#linearGradient3011)"/>
  <path id="svg_2" d="m13.5,0.485c1.07,0 1.94,0.869 1.94,1.94l0,11.1c0,1.07 -0.868,1.94 -1.94,1.94l-11.1,0c-1.07,0 -1.94,-0.868 -1.94,-1.94l0,-11.1c0,-1.07 0.869,-1.94 1.94,-1.94l11.1,0m0,0.25l-11.1,0c-0.932,0 -1.69,0.758 -1.69,1.69l0,11.1c0,0.932 0.758,1.69 1.69,1.69l11.1,0c0.932,0 1.69,-0.758 1.69,-1.69l0,-11.1c0,-0.932 -0.757,-1.69 -1.69,-1.69z" fill="#808080"/>
  <rect id="svg_3" height="3.01" x="2.99" width="10" y="6.5"/>
 </g>
</svg>