<svg width="100" height="100" xmlns="http://www.w3.org/2000/svg">
 <metadata>image/svg+xml</metadata>
 <defs>
  <linearGradient x1="-0.02079" y1="0.5416" x2="-0.02079" y2="0.5416" id="linearGradient3031">
   <stop offset="0" stop-color="#DF421E"/>
   <stop offset="1" stop-color="#900"/>
  </linearGradient>
  <linearGradient x1="0.30341" y1="0.31507" x2="0.30341" y2="1.31507" id="linearGradient3036">
   <stop offset="0" stop-color="#DADADA"/>
   <stop offset="0.349" stop-color="#F1F1F1"/>
   <stop offset="1" stop-color="#F0F0F0"/>
  </linearGradient>
  <linearGradient x1="1.12257" y1="1.51588" x2="-1.07483" y2="-0.46759" id="linearGradient3046">
   <stop offset="0" stop-color="#DADADA"/>
   <stop offset="0.349" stop-color="#F1F1F1"/>
   <stop offset="1" stop-color="#F0F0F0"/>
  </linearGradient>
 </defs>
 <g>
  <title>Layer 1</title>
  <path id="svg_1" fill="url(#linearGradient3036)" stroke-width="0.25" stroke="#000" stroke-opacity="0.3648" d="m4.5,0.145l0,99.6l90.8,0l0,-74.7l-22.7,-24.9l-68.1,0z"/>
  <path id="svg_2" d="m80.7,18.6l0,64.4l-61.9,0l0,-64.5l61.9,0m-3,3l-55.9,0l0,58.4l55.9,0l0,-58.5l0,0.1z"/>
  <path id="svg_3" d="m50.1,26.1c-1.27,0.187 -1.96,0.689 -2.55,2.82c-0.587,2.13 -0.019,5.98 0.786,8.94c0.331,0.979 0.758,1.92 1.14,2.89c-0.217,1.46 -0.482,2.92 -0.854,4.35c-1.43,5.87 -3.05,11.7 -5.49,17.3c-3.4,1.67 -6.72,3.52 -9.85,5.64c-1.89,1.18 -5.35,4.51 -2.18,6.26c1.78,1.00999 3.64,0.808 5.33,0c0.843,-0.404 1.64,-0.968 2.36,-1.59c0.729,-0.619 1.39,-1.3 1.94,-1.98c1.7,-2.14001 3.16,-4.43 4.44,-6.84c5.09,-2.29 10.4,-4.21 15.8,-5.55c2.26,1.98 5.58,3.96 8.37,2c2.82,-1.29 2.34,-5.1 -0.873,-5.15c-2.14,-0.426 -4.25,-0.164 -6.32,0.311c-0.912,-1.05 -1.76,-2.18 -2.54,-3.23c-2.52,-4.01 -4.85,-8.15 -7.01,-12.4c0.592,-3.86 1.2,-8.14 0.724,-10.9c-0.475,-2.79 -1.84,-3.02 -3.2,-2.82l-0.017,-0.018l-0.006,-0.033zm-0.422,2.89c0.342,-0.758 1.22,0.045 1.21,1.06c-0.016,1.01 -0.179,3.29 -0.896,3.92c-0.537,-1.65 -0.654,-4.23 -0.313,-4.98l-0.001,0zm1.87,16.4c1.98,3.95 4.39,7.69 7.4,10.9c-0.882,0.257 -1.79,0.498 -2.66,0.718c-3.22,1.03 -6.38,2.27 -9.51,3.63c2.21,-4.86 3.67,-10 4.77,-15.3l0.001,-0.018l-0.001,0.07zm13.7,12.1c1.14,-0.01 2.04,0.279 1.82,1.36c-0.955,-0.244 -1.79,-0.711 -2.58,-1.27c0.257,-0.027 0.515,-0.081 0.763,-0.083l-0.006,0.001l0.003,-0.008zm-23.6,8.02999c-0.241,0.46201 -0.435,0.94601 -0.695,1.4c-1.63,2.5 -3.99,5.64 -7.23,5.58c-0.969,-2.72 3.01,-4.24 4.86,-5.47c1.01,-0.525 2.04,-1.01 3.07,-1.51l-0.006,0l0.001,0z" fill="url(#linearGradient3031)"/>
  <path id="svg_4" d="m95,24.8c-3.23,-0.887 -7.03,-1.34 -11.3,-1.34c-3.45,0 -7.09,0.304 -10.5,0.876c1.22,-7.94 1.13,-17 -0.226,-23.7l22,24.2l0.026,-0.036z" fill="url(#linearGradient3046)"/>
  <path id="svg_5" d="m72.7,0.215l22.60001,24.8c-3.56001,-1.03 -7.64,-1.45 -11.7,-1.45c-3.73,0 -7.43999,0.354 -10.7,0.905c1.3,-7.4 1.4,-16.8 -0.2,-24.3m22.60001,24.8c0.047,0.014 0.096,0.027 0.143,0.042l-0.09,0.015l-0.05299,-0.057m-22.10001,-23.8c1.27,6.67 1.34,15.4 0.168,23.2c3.4,-0.558 6.98,-0.852 10.4,-0.852c4.1,0 7.76,0.413 10.9,1.23l-21.5,-23.5l0.032,-0.078z" fill="#8e8e8e"/>
 </g>
</svg>