<svg width="100" height="100" xmlns="http://www.w3.org/2000/svg">
 <metadata>image/svg+xml</metadata>
 <defs>
  <linearGradient x1="0.30341" y1="0.31507" x2="0.30341" y2="1.31507" id="linearGradient3038">
   <stop offset="0" stop-color="#DADADA"/>
   <stop offset="0.349" stop-color="#F1F1F1"/>
   <stop offset="1" stop-color="#F0F0F0"/>
  </linearGradient>
  <linearGradient x1="1.12257" y1="1.51588" x2="-1.07483" y2="-0.46759" id="linearGradient3048">
   <stop offset="0" stop-color="#DADADA"/>
   <stop offset="0.349" stop-color="#F1F1F1"/>
   <stop offset="1" stop-color="#F0F0F0"/>
  </linearGradient>
 </defs>
 <g>
  <title>Layer 1</title>
  <path id="svg_1" fill="url(#linearGradient3038)" stroke-width="0.25" stroke="#000" stroke-opacity="0.3648" d="m4.5,0.145l0,99.6l90.8,0l0,-74.7l-22.7,-24.9l-68.1,0z"/>
  <line id="svg_2" fill="none" y2="76.5" x2="85.5" stroke="#000" y1="76.5" x1="49.5"/>
  <rect id="svg_3" fill="#000" x="13.5" y="22.5" width="72" height="9"/>
  <path id="svg_4" d="m95,24.8c-3.23,-0.887 -7.03,-1.34 -11.3,-1.34c-3.45,0 -7.09,0.304 -10.5,0.876c1.22,-7.94 1.13,-17 -0.226,-23.7l22,24.2l0.026,-0.036z" fill="url(#linearGradient3048)"/>
  <path id="svg_5" d="m72.7,0.215l22.60001,24.8c-3.56001,-1.03 -7.64,-1.45 -11.7,-1.45c-3.73,0 -7.43999,0.354 -10.7,0.905c1.3,-7.4 1.4,-16.8 -0.2,-24.3m22.60001,24.8c0.047,0.014 0.096,0.027 0.143,0.042l-0.09,0.015l-0.05299,-0.057m-22.10001,-23.8c1.27,6.67 1.34,15.4 0.168,23.2c3.4,-0.558 6.98,-0.852 10.4,-0.852c4.1,0 7.76,0.413 10.9,1.23l-21.5,-23.5l0.032,-0.078z" fill="#8e8e8e"/>
  <line id="svg_6" fill="none" x1="49.5" y1="58.5" stroke="#000" x2="85.5" y2="58.5"/>
  <line id="svg_7" fill="none" x1="49.5" y1="40.5" stroke="#000" x2="85.5" y2="40.5"/>
  <path id="svg_8" d="m29.8,57.7l0,-15.5c-8.47,0.104 -15.3,7 -15.3,15.5c0,8.56 6.94,15.5 15.5,15.5s15.5,-6.93999 15.5,-15.5l0,-0.029l-15.7,0l0,0.029z" fill="#000"/>
 </g>
</svg>