<svg width="100" height="100" xmlns="http://www.w3.org/2000/svg">
 <metadata>image/svg+xml</metadata>
 <defs>
  <linearGradient x1="5.07129" y1="0.18653" x2="-4.92871" y2="1.08653" id="linearGradient3027">
   <stop offset="0" stop-color="#DADADA"/>
   <stop offset="0.349" stop-color="#F1F1F1"/>
   <stop offset="1" stop-color="#F0F0F0"/>
  </linearGradient>
  <linearGradient x1="1.12257" y1="1.5225" x2="-1.07483" y2="-0.50229" id="linearGradient3038">
   <stop offset="0" stop-color="#DADADA"/>
   <stop offset="0.349" stop-color="#F1F1F1"/>
   <stop offset="1" stop-color="#F0F0F0"/>
  </linearGradient>
 </defs>
 <g>
  <title>Layer 1</title>
  <path id="svg_1" fill="url(#linearGradient3027)" stroke-width="0.25" stroke="#000" stroke-opacity="0.3648" d="m4.5,0.145l0,99.6l90.8,0l0,-74.7l-22.7,-24.9l-68.1,0z"/>
  <path id="svg_2" d="m80.7,18.6l0,64.4l-61.9,0l0,-64.5l61.9,0m-3,3l-55.9,0l0,58.4l55.9,0l0,-58.5l0,0.1z"/>
  <path id="svg_3" fill="none" stroke-width="4" stroke="#000" d="m68.1,40.8c-0.3,-0.185 -0.639,-0.277 -0.982,-0.277c-0.285,0 -0.573,0.065 -0.836,0.197l-4.77,2.39l0,-0.714c0,-3.09 -2.52,-5.61 -5.61,-5.61l-20.6,0c-3.09,0 -5.61,2.52 -5.61,5.61l0,15c0,3.09 2.52,5.61 5.61,5.61l20.6,0c3.09,0 5.61,-2.52 5.61,-5.61l0,-0.714l4.77,2.39c0.263,0.132 0.551,0.197 0.836,0.197c0.344,0 0.68301,-0.093 0.982,-0.277c0.552,-0.344 0.888,-0.942 0.888,-1.59l0,-15c0,-0.651 -0.336,-1.25 -0.888,-1.59l0,-0.012zm-29.1,11.9c-1.55,0 -2.81,-1.26 -2.81,-2.8c0,-1.55 1.26,-2.81 2.81,-2.81s2.8,1.26 2.8,2.81s-1.26,2.8 -2.8,2.8z"/>
  <path id="svg_4" d="m95,24.8c-3.23,-0.887 -7.03,-1.34 -11.3,-1.34c-3.45,0 -7.09,0.304 -10.5,0.876c1.22,-7.94 1.13,-17 -0.226,-23.7l22,24.2l0.026,-0.036z" fill="url(#linearGradient3038)"/>
  <path id="svg_5" d="m72.7,0.215l22.60001,24.8c-3.56001,-1.03 -7.64,-1.45 -11.7,-1.45c-3.73,0 -7.43999,0.354 -10.7,0.905c1.3,-7.4 1.4,-16.8 -0.2,-24.3m22.60001,24.8c0.047,0.014 0.096,0.027 0.143,0.042l-0.09,0.015l-0.05299,-0.057m-22.10001,-23.8c1.27,6.67 1.34,15.4 0.168,23.2c3.4,-0.558 6.98,-0.852 10.4,-0.852c4.1,0 7.76,0.413 10.9,1.23l-21.5,-23.5l0.032,-0.078z" fill="#8e8e8e"/>
 </g>
</svg>